<svg width="307" height="27" viewBox="0 0 307 27" fill="none" xmlns="http://www.w3.org/2000/svg">
<path d="M7.62 21L0.599998 1.5H3.18L9.21 18.42H8.49L14.28 1.5H16.86L22.65 18.42H21.93L27.96 1.5H30.48L23.52 21H21L15.24 3.48H15.9L10.14 21H7.62Z" fill="white"/>
<path d="M42.1598 16.17H44.4098C44.2498 17.15 43.8898 18.03 43.3298 18.81C42.7898 19.57 42.0698 20.18 41.1698 20.64C40.2898 21.08 39.2698 21.3 38.1098 21.3C36.7098 21.3 35.4498 20.97 34.3298 20.31C33.2098 19.63 32.3198 18.71 31.6598 17.55C31.0198 16.37 30.6998 15.03 30.6998 13.53C30.6998 12.03 31.0098 10.69 31.6298 9.51C32.2698 8.33 33.1398 7.4 34.2398 6.72C35.3398 6.04 36.5798 5.7 37.9598 5.7C39.4198 5.7 40.6498 6.03 41.6498 6.69C42.6698 7.33 43.4198 8.28 43.8998 9.54C44.3998 10.78 44.5998 12.31 44.4998 14.13H33.0998C33.1998 15.11 33.4698 15.97 33.9098 16.71C34.3498 17.45 34.9298 18.03 35.6498 18.45C36.3698 18.85 37.1898 19.05 38.1098 19.05C39.1298 19.05 39.9898 18.79 40.6898 18.27C41.4098 17.73 41.8998 17.03 42.1598 16.17ZM38.0498 7.95C36.8098 7.95 35.7698 8.31 34.9298 9.03C34.0898 9.75 33.5298 10.73 33.2498 11.97H42.0398C41.9598 10.65 41.5298 9.65 40.7498 8.97C39.9898 8.29 39.0898 7.95 38.0498 7.95Z" fill="white"/>
<path d="M53.2645 21.3C52.0645 21.3 50.9645 20.97 49.9645 20.31C48.9845 19.63 48.2045 18.71 47.6245 17.55C47.0445 16.37 46.7545 15.03 46.7545 13.53C46.7545 12.03 47.0345 10.69 47.5945 9.51C48.1545 8.33 48.9245 7.4 49.9045 6.72C50.8845 6.04 52.0045 5.7 53.2645 5.7C54.3845 5.7 55.2945 5.91 55.9945 6.33C56.7145 6.73 57.2645 7.29 57.6445 8.01C58.0245 8.73 58.2845 9.56 58.4245 10.5C58.5845 11.44 58.6645 12.45 58.6645 13.53C58.6645 14.29 58.5845 15.12 58.4245 16.02C58.2645 16.9 57.9845 17.75 57.5845 18.57C57.2045 19.37 56.6645 20.03 55.9645 20.55C55.2645 21.05 54.3645 21.3 53.2645 21.3ZM53.8645 19.02C54.8845 19.02 55.7245 18.77 56.3845 18.27C57.0645 17.77 57.5645 17.11 57.8845 16.29C58.2045 15.45 58.3645 14.53 58.3645 13.53C58.3645 12.43 58.1945 11.47 57.8545 10.65C57.5345 9.81 57.0345 9.16 56.3545 8.7C55.6945 8.22 54.8645 7.98 53.8645 7.98C52.3645 7.98 51.2045 8.51 50.3845 9.57C49.5645 10.61 49.1545 11.93 49.1545 13.53C49.1545 14.59 49.3545 15.54 49.7545 16.38C50.1745 17.2 50.7345 17.85 51.4345 18.33C52.1545 18.79 52.9645 19.02 53.8645 19.02ZM58.3645 0H60.7645V21H58.5745C58.5345 20.56 58.4845 20.04 58.4245 19.44C58.3845 18.84 58.3645 18.36 58.3645 18V0Z" fill="white"/>
<path d="M70.7841 21.3C69.5841 21.3 68.4841 20.97 67.4841 20.31C66.5041 19.63 65.7241 18.71 65.1441 17.55C64.5641 16.37 64.2741 15.03 64.2741 13.53C64.2741 12.03 64.5541 10.69 65.1141 9.51C65.6741 8.33 66.4441 7.4 67.4241 6.72C68.4041 6.04 69.5241 5.7 70.7841 5.7C71.9041 5.7 72.8141 5.91 73.5141 6.33C74.2341 6.73 74.7841 7.29 75.1641 8.01C75.5441 8.73 75.8041 9.56 75.9441 10.5C76.1041 11.44 76.1841 12.45 76.1841 13.53C76.1841 14.29 76.1041 15.12 75.9441 16.02C75.7841 16.9 75.5041 17.75 75.1041 18.57C74.7241 19.37 74.1841 20.03 73.4841 20.55C72.7841 21.05 71.8841 21.3 70.7841 21.3ZM71.3841 19.02C72.4041 19.02 73.2441 18.77 73.9041 18.27C74.5841 17.77 75.0841 17.11 75.4041 16.29C75.7241 15.45 75.8841 14.53 75.8841 13.53C75.8841 12.43 75.7141 11.47 75.3741 10.65C75.0541 9.81 74.5541 9.16 73.8741 8.7C73.2141 8.22 72.3841 7.98 71.3841 7.98C69.8841 7.98 68.7241 8.51 67.9041 9.57C67.0841 10.61 66.6741 11.93 66.6741 13.53C66.6741 14.59 66.8741 15.54 67.2741 16.38C67.6941 17.2 68.2541 17.85 68.9541 18.33C69.6741 18.79 70.4841 19.02 71.3841 19.02ZM75.8841 0H78.2841V21H76.0941C76.0541 20.56 76.0041 20.04 75.9441 19.44C75.9041 18.84 75.8841 18.36 75.8841 18V0Z" fill="white"/>
<path d="M85.6036 0V2.91H82.4836V0H85.6036ZM82.8436 6H85.2436V21H82.8436V6Z" fill="white"/>
<path d="M89.3426 6H91.7426V21H89.3426V6ZM96.9026 5.7C97.7026 5.7 98.4226 5.82 99.0626 6.06C99.7026 6.3 100.243 6.65 100.683 7.11C101.123 7.57 101.463 8.13 101.703 8.79C101.943 9.43 102.063 10.16 102.063 10.98V21H99.6626V11.58C99.6626 10.42 99.3926 9.55 98.8526 8.97C98.3126 8.39 97.5026 8.1 96.4226 8.1C95.6026 8.1 94.8426 8.31 94.1426 8.73C93.4426 9.15 92.8626 9.73 92.4026 10.47C91.9626 11.19 91.6926 12.03 91.5926 12.99L91.5626 11.25C91.6626 10.41 91.8626 9.65 92.1626 8.97C92.4826 8.29 92.8726 7.71 93.3326 7.23C93.8126 6.73 94.3526 6.35 94.9526 6.09C95.5726 5.83 96.2226 5.7 96.9026 5.7Z" fill="white"/>
<path d="M111.324 18.63C110.264 18.63 109.254 18.38 108.294 17.88C107.354 17.36 106.584 16.62 105.984 15.66C105.404 14.7 105.114 13.55 105.114 12.21C105.114 10.87 105.404 9.72 105.984 8.76C106.564 7.78 107.324 7.03 108.264 6.51C109.204 5.97 110.224 5.7 111.324 5.7C111.664 5.7 111.984 5.73 112.284 5.79C112.604 5.83 112.904 5.9 113.184 6H119.274V8.58C118.414 8.58 117.554 8.42 116.694 8.1C115.854 7.78 115.134 7.45 114.534 7.11L114.414 6.99C115.114 7.37 115.684 7.82 116.124 8.34C116.584 8.86 116.924 9.45 117.144 10.11C117.384 10.75 117.504 11.45 117.504 12.21C117.504 13.55 117.214 14.7 116.634 15.66C116.074 16.62 115.324 17.36 114.384 17.88C113.444 18.38 112.424 18.63 111.324 18.63ZM115.734 27V26.34C115.734 25.28 115.454 24.51 114.894 24.03C114.354 23.55 113.534 23.31 112.434 23.31H109.434C108.774 23.31 108.194 23.25 107.694 23.13C107.214 23.03 106.814 22.87 106.494 22.65C106.174 22.43 105.934 22.16 105.774 21.84C105.614 21.52 105.534 21.16 105.534 20.76C105.534 20 105.764 19.43 106.224 19.05C106.684 18.65 107.254 18.4 107.934 18.3C108.614 18.2 109.264 18.2 109.884 18.3L111.324 18.63C110.244 18.69 109.404 18.8 108.804 18.96C108.224 19.12 107.934 19.46 107.934 19.98C107.934 20.28 108.044 20.53 108.264 20.73C108.504 20.91 108.854 21 109.314 21H112.434C113.474 21 114.424 21.14 115.284 21.42C116.144 21.72 116.834 22.21 117.354 22.89C117.874 23.59 118.134 24.54 118.134 25.74V27H115.734ZM111.324 16.38C111.984 16.38 112.594 16.22 113.154 15.9C113.734 15.58 114.204 15.11 114.564 14.49C114.924 13.87 115.104 13.11 115.104 12.21C115.104 11.31 114.924 10.55 114.564 9.93C114.224 9.29 113.764 8.81 113.184 8.49C112.604 8.15 111.984 7.98 111.324 7.98C110.664 7.98 110.044 8.15 109.464 8.49C108.884 8.81 108.414 9.28 108.054 9.9C107.694 10.52 107.514 11.29 107.514 12.21C107.514 13.11 107.694 13.87 108.054 14.49C108.414 15.11 108.884 15.58 109.464 15.9C110.044 16.22 110.664 16.38 111.324 16.38Z" fill="white"/>
<path d="M135.895 21.3C134.795 21.3 133.895 21.05 133.195 20.55C132.495 20.03 131.945 19.37 131.545 18.57C131.165 17.75 130.895 16.9 130.735 16.02C130.575 15.12 130.495 14.29 130.495 13.53C130.495 12.45 130.565 11.44 130.705 10.5C130.865 9.56 131.135 8.73 131.515 8.01C131.895 7.29 132.435 6.73 133.135 6.33C133.855 5.91 134.775 5.7 135.895 5.7C137.095 5.7 138.185 6.04 139.165 6.72C140.145 7.4 140.925 8.33 141.505 9.51C142.105 10.69 142.405 12.03 142.405 13.53C142.405 15.03 142.105 16.37 141.505 17.55C140.905 18.71 140.105 19.63 139.105 20.31C138.125 20.97 137.055 21.3 135.895 21.3ZM135.295 19.02C136.215 19.02 137.025 18.79 137.725 18.33C138.445 17.85 139.005 17.2 139.405 16.38C139.805 15.54 140.005 14.59 140.005 13.53C140.005 11.93 139.595 10.61 138.775 9.57C137.955 8.51 136.795 7.98 135.295 7.98C134.415 7.98 133.635 8.22 132.955 8.7C132.275 9.16 131.745 9.81 131.365 10.65C130.985 11.47 130.795 12.43 130.795 13.53C130.795 14.53 130.955 15.45 131.275 16.29C131.615 17.11 132.115 17.77 132.775 18.27C133.435 18.77 134.275 19.02 135.295 19.02ZM128.395 6H130.705L130.795 9.15V27H128.395V6Z" fill="white"/>
<path d="M156.155 21V11.58C156.155 10.8 156.035 10.16 155.795 9.66C155.555 9.14 155.195 8.75 154.715 8.49C154.235 8.23 153.635 8.1 152.915 8.1C152.095 8.1 151.335 8.31 150.635 8.73C149.935 9.15 149.355 9.73 148.895 10.47C148.455 11.19 148.185 12.03 148.085 12.99L148.055 11.25C148.155 10.41 148.355 9.65 148.655 8.97C148.975 8.29 149.365 7.71 149.825 7.23C150.305 6.73 150.845 6.35 151.445 6.09C152.065 5.83 152.715 5.7 153.395 5.7C154.195 5.7 154.915 5.82 155.555 6.06C156.195 6.3 156.735 6.65 157.175 7.11C157.615 7.57 157.955 8.13 158.195 8.79C158.435 9.43 158.555 10.16 158.555 10.98V21H156.155ZM145.835 21V0H148.235V21H145.835Z" fill="white"/>
<path d="M168.978 21.3C167.698 21.3 166.498 20.99 165.378 20.37C164.258 19.75 163.348 18.86 162.648 17.7C161.968 16.52 161.628 15.13 161.628 13.53C161.628 11.93 161.968 10.55 162.648 9.39C163.348 8.21 164.258 7.3 165.378 6.66C166.498 6.02 167.698 5.7 168.978 5.7C170.258 5.7 171.448 6.02 172.548 6.66C173.668 7.3 174.568 8.21 175.248 9.39C175.928 10.55 176.268 11.93 176.268 13.53C176.268 15.13 175.928 16.52 175.248 17.7C174.568 18.86 173.668 19.75 172.548 20.37C171.448 20.99 170.258 21.3 168.978 21.3ZM168.978 19.05C169.818 19.05 170.608 18.84 171.348 18.42C172.088 18 172.688 17.38 173.148 16.56C173.628 15.72 173.868 14.71 173.868 13.53C173.868 12.35 173.628 11.35 173.148 10.53C172.688 9.69 172.088 9.05 171.348 8.61C170.608 8.17 169.818 7.95 168.978 7.95C168.138 7.95 167.338 8.17 166.578 8.61C165.838 9.03 165.228 9.66 164.748 10.5C164.268 11.32 164.028 12.33 164.028 13.53C164.028 14.71 164.258 15.72 164.718 16.56C165.198 17.38 165.818 18 166.578 18.42C167.338 18.84 168.138 19.05 168.978 19.05Z" fill="white"/>
<path d="M177.97 6H186.79V8.25H177.97V6ZM181.18 2.1H183.58V21H181.18V2.1Z" fill="white"/>
<path d="M195.843 21.3C194.563 21.3 193.363 20.99 192.243 20.37C191.123 19.75 190.213 18.86 189.513 17.7C188.833 16.52 188.493 15.13 188.493 13.53C188.493 11.93 188.833 10.55 189.513 9.39C190.213 8.21 191.123 7.3 192.243 6.66C193.363 6.02 194.563 5.7 195.843 5.7C197.123 5.7 198.313 6.02 199.413 6.66C200.533 7.3 201.433 8.21 202.113 9.39C202.793 10.55 203.133 11.93 203.133 13.53C203.133 15.13 202.793 16.52 202.113 17.7C201.433 18.86 200.533 19.75 199.413 20.37C198.313 20.99 197.123 21.3 195.843 21.3ZM195.843 19.05C196.683 19.05 197.473 18.84 198.213 18.42C198.953 18 199.553 17.38 200.013 16.56C200.493 15.72 200.733 14.71 200.733 13.53C200.733 12.35 200.493 11.35 200.013 10.53C199.553 9.69 198.953 9.05 198.213 8.61C197.473 8.17 196.683 7.95 195.843 7.95C195.003 7.95 194.203 8.17 193.443 8.61C192.703 9.03 192.093 9.66 191.613 10.5C191.133 11.32 190.893 12.33 190.893 13.53C190.893 14.71 191.123 15.72 191.583 16.56C192.063 17.38 192.683 18 193.443 18.42C194.203 18.84 195.003 19.05 195.843 19.05Z" fill="white"/>
<path d="M211.549 18.63C210.489 18.63 209.479 18.38 208.519 17.88C207.579 17.36 206.809 16.62 206.209 15.66C205.629 14.7 205.339 13.55 205.339 12.21C205.339 10.87 205.629 9.72 206.209 8.76C206.789 7.78 207.549 7.03 208.489 6.51C209.429 5.97 210.449 5.7 211.549 5.7C211.889 5.7 212.209 5.73 212.509 5.79C212.829 5.83 213.129 5.9 213.409 6H219.499V8.58C218.639 8.58 217.779 8.42 216.919 8.1C216.079 7.78 215.359 7.45 214.759 7.11L214.639 6.99C215.339 7.37 215.909 7.82 216.349 8.34C216.809 8.86 217.149 9.45 217.369 10.11C217.609 10.75 217.729 11.45 217.729 12.21C217.729 13.55 217.439 14.7 216.859 15.66C216.299 16.62 215.549 17.36 214.609 17.88C213.669 18.38 212.649 18.63 211.549 18.63ZM215.959 27V26.34C215.959 25.28 215.679 24.51 215.119 24.03C214.579 23.55 213.759 23.31 212.659 23.31H209.659C208.999 23.31 208.419 23.25 207.919 23.13C207.439 23.03 207.039 22.87 206.719 22.65C206.399 22.43 206.159 22.16 205.999 21.84C205.839 21.52 205.759 21.16 205.759 20.76C205.759 20 205.989 19.43 206.449 19.05C206.909 18.65 207.479 18.4 208.159 18.3C208.839 18.2 209.489 18.2 210.109 18.3L211.549 18.63C210.469 18.69 209.629 18.8 209.029 18.96C208.449 19.12 208.159 19.46 208.159 19.98C208.159 20.28 208.269 20.53 208.489 20.73C208.729 20.91 209.079 21 209.539 21H212.659C213.699 21 214.649 21.14 215.509 21.42C216.369 21.72 217.059 22.21 217.579 22.89C218.099 23.59 218.359 24.54 218.359 25.74V27H215.959ZM211.549 16.38C212.209 16.38 212.819 16.22 213.379 15.9C213.959 15.58 214.429 15.11 214.789 14.49C215.149 13.87 215.329 13.11 215.329 12.21C215.329 11.31 215.149 10.55 214.789 9.93C214.449 9.29 213.989 8.81 213.409 8.49C212.829 8.15 212.209 7.98 211.549 7.98C210.889 7.98 210.269 8.15 209.689 8.49C209.109 8.81 208.639 9.28 208.279 9.9C207.919 10.52 207.739 11.29 207.739 12.21C207.739 13.11 207.919 13.87 208.279 14.49C208.639 15.11 209.109 15.58 209.689 15.9C210.269 16.22 210.889 16.38 211.549 16.38Z" fill="white"/>
<path d="M222.321 6H224.721V21H222.321V6ZM229.521 8.25C228.501 8.25 227.641 8.51 226.941 9.03C226.261 9.53 225.721 10.15 225.321 10.89C224.941 11.61 224.691 12.31 224.571 12.99L224.541 11.25C224.541 11.07 224.581 10.77 224.661 10.35C224.741 9.93 224.891 9.46 225.111 8.94C225.331 8.4 225.621 7.89 225.981 7.41C226.361 6.91 226.841 6.5 227.421 6.18C228.001 5.86 228.701 5.7 229.521 5.7V8.25Z" fill="white"/>
<path d="M237.893 21.3C236.713 21.3 235.623 20.97 234.623 20.31C233.643 19.63 232.853 18.71 232.253 17.55C231.673 16.37 231.383 15.03 231.383 13.53C231.383 12.03 231.683 10.69 232.283 9.51C232.883 8.33 233.693 7.4 234.713 6.72C235.753 6.04 236.913 5.7 238.193 5.7C239.593 5.7 240.653 6.06 241.373 6.78C242.113 7.48 242.613 8.42 242.873 9.6C243.153 10.78 243.293 12.09 243.293 13.53C243.293 14.29 243.213 15.12 243.053 16.02C242.893 16.9 242.613 17.75 242.213 18.57C241.833 19.37 241.293 20.03 240.593 20.55C239.893 21.05 238.993 21.3 237.893 21.3ZM238.493 19.02C239.513 19.02 240.353 18.77 241.013 18.27C241.693 17.77 242.193 17.11 242.513 16.29C242.833 15.45 242.993 14.53 242.993 13.53C242.993 12.43 242.823 11.47 242.483 10.65C242.163 9.81 241.663 9.16 240.983 8.7C240.323 8.22 239.493 7.98 238.493 7.98C236.993 7.98 235.833 8.51 235.013 9.57C234.193 10.61 233.783 11.93 233.783 13.53C233.783 14.59 233.983 15.54 234.383 16.38C234.803 17.2 235.363 17.85 236.063 18.33C236.783 18.79 237.593 19.02 238.493 19.02ZM242.993 6H245.393V21H243.203C243.203 21 243.183 20.82 243.143 20.46C243.123 20.1 243.093 19.68 243.053 19.2C243.013 18.72 242.993 18.32 242.993 18V6Z" fill="white"/>
<path d="M256.804 21.3C255.704 21.3 254.804 21.05 254.104 20.55C253.404 20.03 252.854 19.37 252.454 18.57C252.074 17.75 251.804 16.9 251.644 16.02C251.484 15.12 251.404 14.29 251.404 13.53C251.404 12.45 251.474 11.44 251.614 10.5C251.774 9.56 252.044 8.73 252.424 8.01C252.804 7.29 253.344 6.73 254.044 6.33C254.764 5.91 255.684 5.7 256.804 5.7C258.004 5.7 259.094 6.04 260.074 6.72C261.054 7.4 261.834 8.33 262.414 9.51C263.014 10.69 263.313 12.03 263.313 13.53C263.313 15.03 263.014 16.37 262.414 17.55C261.814 18.71 261.014 19.63 260.014 20.31C259.034 20.97 257.964 21.3 256.804 21.3ZM256.204 19.02C257.124 19.02 257.934 18.79 258.634 18.33C259.354 17.85 259.913 17.2 260.313 16.38C260.713 15.54 260.914 14.59 260.914 13.53C260.914 11.93 260.503 10.61 259.683 9.57C258.863 8.51 257.704 7.98 256.204 7.98C255.324 7.98 254.544 8.22 253.864 8.7C253.184 9.16 252.654 9.81 252.274 10.65C251.894 11.47 251.704 12.43 251.704 13.53C251.704 14.53 251.864 15.45 252.184 16.29C252.524 17.11 253.024 17.77 253.684 18.27C254.344 18.77 255.184 19.02 256.204 19.02ZM249.304 6H251.614L251.704 9.15V27H249.304V6Z" fill="white"/>
<path d="M277.064 21V11.58C277.064 10.8 276.944 10.16 276.704 9.66C276.464 9.14 276.104 8.75 275.624 8.49C275.144 8.23 274.544 8.1 273.824 8.1C273.004 8.1 272.244 8.31 271.544 8.73C270.844 9.15 270.264 9.73 269.804 10.47C269.364 11.19 269.094 12.03 268.994 12.99L268.964 11.25C269.064 10.41 269.264 9.65 269.564 8.97C269.884 8.29 270.274 7.71 270.734 7.23C271.214 6.73 271.754 6.35 272.354 6.09C272.974 5.83 273.624 5.7 274.304 5.7C275.104 5.7 275.824 5.82 276.464 6.06C277.104 6.3 277.644 6.65 278.084 7.11C278.524 7.57 278.864 8.13 279.104 8.79C279.344 9.43 279.464 10.16 279.464 10.98V21H277.064ZM266.744 21V0H269.144V21H266.744Z" fill="white"/>
<path d="M293.996 16.17H296.246C296.086 17.15 295.726 18.03 295.166 18.81C294.626 19.57 293.906 20.18 293.006 20.64C292.126 21.08 291.106 21.3 289.946 21.3C288.546 21.3 287.286 20.97 286.166 20.31C285.046 19.63 284.156 18.71 283.496 17.55C282.856 16.37 282.536 15.03 282.536 13.53C282.536 12.03 282.846 10.69 283.466 9.51C284.106 8.33 284.976 7.4 286.076 6.72C287.176 6.04 288.416 5.7 289.796 5.7C291.256 5.7 292.486 6.03 293.486 6.69C294.506 7.33 295.256 8.28 295.736 9.54C296.236 10.78 296.436 12.31 296.336 14.13H284.936C285.036 15.11 285.306 15.97 285.746 16.71C286.186 17.45 286.766 18.03 287.486 18.45C288.206 18.85 289.026 19.05 289.946 19.05C290.966 19.05 291.826 18.79 292.526 18.27C293.246 17.73 293.736 17.03 293.996 16.17ZM289.886 7.95C288.646 7.95 287.606 8.31 286.766 9.03C285.926 9.75 285.366 10.73 285.086 11.97H293.876C293.796 10.65 293.366 9.65 292.586 8.97C291.826 8.29 290.926 7.95 289.886 7.95Z" fill="white"/>
<path d="M299.43 6H301.83V21H299.43V6ZM306.63 8.25C305.61 8.25 304.75 8.51 304.05 9.03C303.37 9.53 302.83 10.15 302.43 10.89C302.05 11.61 301.8 12.31 301.68 12.99L301.65 11.25C301.65 11.07 301.69 10.77 301.77 10.35C301.85 9.93 302 9.46 302.22 8.94C302.44 8.4 302.73 7.89 303.09 7.41C303.47 6.91 303.95 6.5 304.53 6.18C305.11 5.86 305.81 5.7 306.63 5.7V8.25Z" fill="white"/>
</svg>
