<svg width="91" height="18" viewBox="0 0 91 18" fill="none" xmlns="http://www.w3.org/2000/svg">
<path d="M13.42 16.96C12.52 16.96 11.74 16.38 11.48 15.54L6.96 1.9H6.44L1.92 15.66C1.66 16.44 0.94 16.96 0.12 16.96H0.1V16.98H3.26V16.96H3.04C2.42 16.96 2 16.36 2.18 15.78L3.36 12.1H8.82L10 15.8C10.2 16.36 9.76 16.96 9.16 16.96H8.88V17H13.56V16.96H13.42ZM3.44 11.84L6.08 4L8.74 11.84H3.44Z" fill="white"/>
<path d="M17.8723 16.96L17.0123 16.8C16.7923 16.76 16.6323 16.68 16.6123 16.38V0.82H13.9523V0.879999L14.8123 1.02C15.0523 1.06 15.2123 1.14 15.2123 1.5V16.32C15.2123 16.68 15.0523 16.76 14.8123 16.8L13.9523 16.96V17H17.8723V16.96Z" fill="white"/>
<path d="M24.9064 17.3C26.5064 17.3 28.3664 16.56 29.1264 15.1L28.9064 14.96C28.1864 16.34 26.4264 17.06 24.9064 17.08C21.6064 17.08 20.2664 14 20.2664 11.16L20.2864 10.74H29.1264V10.64C29.2464 7.44 27.3864 5.24 24.1864 5.24C20.8064 5.24 18.7664 7.98 18.7664 11.16C18.7664 14.8 21.2664 17.3 24.9064 17.3ZM24.2064 5.48C26.5264 5.48 27.6864 8.2 27.6264 10.32L27.6064 10.52H20.2864C20.4464 8.32 21.6264 5.48 24.2064 5.48Z" fill="white"/>
<path d="M37.1917 16.88L36.4117 16.94V17H40.9317V16.94L40.2117 16.88C39.7517 16.84 39.3517 16.58 39.1117 16.18L35.7917 10.58L38.3917 6.66C38.7717 6.08 39.4117 5.68 40.1317 5.62L40.4517 5.58V5.54H37.2517V5.58L37.8317 5.64C38.2117 5.68 38.4317 6.12 38.2117 6.46L35.6517 10.34L33.2717 6.3C33.1117 6.02 33.2717 5.7 33.5917 5.66L34.3517 5.58V5.54H29.8517V5.58L30.5517 5.66C31.0117 5.7 31.4317 5.96 31.6717 6.38L34.6317 11.38L31.6717 15.86C31.2917 16.46 30.6517 16.84 29.9317 16.92L29.6117 16.94V17H32.8117V16.94L32.2317 16.9C31.8517 16.86 31.6317 16.42 31.8517 16.08L34.7917 11.64L37.5117 16.24C37.6717 16.5 37.4917 16.84 37.1917 16.88Z" fill="white"/>
<path d="M63.1027 2.04H63.3427C63.9427 2.04 64.3827 2.62 64.2027 3.2L60.3027 14.86L56.3827 3.2C56.2427 2.78 56.4427 2.36 56.7827 2.16C56.9027 2.08 57.0627 2.04 57.2227 2.04H57.5027V2H52.8427V2.04H52.9827C53.8627 2.04 54.6427 2.6 54.9227 3.44L56.0027 6.8L53.2827 14.86L49.3627 3.2C49.1827 2.62 49.6027 2.04 50.2227 2.04H50.4827V2H45.8227V2.04H45.9627C46.8427 2.04 47.6427 2.6 47.9027 3.44L52.4627 17.18H52.8427L56.1627 7.32L59.4827 17.18H59.8627L64.4627 3.32C64.7227 2.56 65.4227 2.04 66.2427 2.04H66.2627V2H63.1027V2.04Z" fill="white"/>
<path d="M71.6056 17.3C73.2056 17.3 75.0656 16.56 75.8256 15.1L75.6056 14.96C74.8856 16.34 73.1256 17.06 71.6056 17.08C68.3056 17.08 66.9656 14 66.9656 11.16L66.9856 10.74H75.8256V10.64C75.9456 7.44 74.0856 5.24 70.8856 5.24C67.5056 5.24 65.4656 7.98 65.4656 11.16C65.4656 14.8 67.9656 17.3 71.6056 17.3ZM70.9056 5.48C73.2256 5.48 74.3856 8.2 74.3256 10.32L74.3056 10.52H66.9856C67.1456 8.32 68.3256 5.48 70.9056 5.48Z" fill="white"/>
<path d="M80.6263 16.96L79.7663 16.8C79.5463 16.76 79.3863 16.68 79.3663 16.38V0.82H76.7063V0.879999L77.5663 1.02C77.8063 1.06 77.9662 1.14 77.9662 1.5V16.32C77.9662 16.68 77.8063 16.76 77.5663 16.8L76.7063 16.96V17H80.6263V16.96Z" fill="white"/>
<path d="M85.0403 16.96L84.1803 16.8C83.9603 16.76 83.8003 16.68 83.7803 16.38V0.82H81.1203V0.879999L81.9803 1.02C82.2203 1.06 82.3803 1.14 82.3803 1.5V16.32C82.3803 16.68 82.2203 16.76 81.9803 16.8L81.1203 16.96V17H85.0403V16.96Z" fill="white"/>
<path d="M85.7344 7.56C85.7344 10.46 89.4544 12.1 89.4544 14.8C89.4544 16.82 87.7744 17.18 87.0144 17.18C86.6744 17.18 86.4144 17.1 86.2944 17.04L86.2744 17.14C86.3144 17.16 86.6744 17.3 87.4144 17.3C88.1144 17.3 90.8744 17.02 90.8744 14.42C90.8744 11.74 87.0944 9.7 87.0944 7.24C87.0944 6.32 87.5744 5.32 88.8944 5.32C89.2544 5.32 89.4344 5.4 89.4344 5.4L89.4544 5.3C89.4544 5.3 89.2144 5.24 88.8944 5.24C86.5344 5.24 85.7344 6.42 85.7344 7.56Z" fill="white"/>
</svg>
