<svg viewBox="0 0 24 24"  xmlns="http://www.w3.org/2000/svg" style="display:none">

	<symbol viewBox="0 0 16 30" id="facebook">
		<path d="M10.1124 29.9999V16.3154H14.7057L15.3934 10.9824H10.1124V7.57736C10.1124 6.03335 10.5412 4.98102 12.7555 4.98102L15.5796 4.97972V0.209915C15.0909 0.145158 13.4146 0 11.4644 0C7.39277 0 4.60522 2.48522 4.60522 7.04946V10.9825H0V16.3156H4.60507V30L10.1124 29.9999Z"/>
	</symbol>

	<symbol viewBox="0 0 29 24" id="twitter">
		<path d="M25.7625 5.8125C25.7625 6.075 25.7625 6.3375 25.7625 6.5625C25.7625 14.325 19.8375 23.2875 9.0375 23.2875C5.7 23.2875 2.625 22.3125 0 20.6625C0.45 20.7 0.9375 20.7375 1.3875 20.7375C4.125 20.7375 6.675 19.8 8.7 18.225C6.1125 18.1875 3.9375 16.4625 3.225 14.1375C3.6 14.2125 3.9375 14.25 4.35 14.25C4.875 14.25 5.4 14.175 5.8875 14.025C3.1875 13.5 1.1625 11.1375 1.1625 8.2875C1.1625 8.25 1.1625 8.25 1.1625 8.2125C1.95 8.6625 2.85 8.925 3.825 8.9625C2.25 7.9125 1.2 6.1125 1.2 4.05C1.2 2.9625 1.5 1.95 1.9875 1.0875C4.875 4.65 9.225 6.975 14.1 7.2375C13.9875 6.825 13.95 6.3375 13.95 5.8875C13.95 2.625 16.575 0 19.8375 0C21.525 0 23.0625 0.7125 24.1125 1.8375C25.4625 1.575 26.7 1.0875 27.8625 0.4125C27.4125 1.8 26.475 2.925 25.275 3.675C26.475 3.525 27.6 3.225 28.65 2.7375C27.9 3.9375 26.925 4.9875 25.7625 5.8125Z"/>
	</symbol>

	<symbol viewBox="0 0 26 32" id="pinterest">
		<path d="M10.7691 21.79C11.4318 23.0416 13.3742 24.1015 15.4366 24.1015C21.5781 24.1015 26 18.5257 26 11.6025C26 4.96688 20.5098 0 13.4485 0C4.66183 0 0 5.81818 0 12.1607C0 15.1092 1.58822 18.7738 4.13052 19.9408C4.51901 20.1212 4.72468 20.0423 4.81037 19.6758C4.87893 19.3939 5.22171 18.0352 5.37596 17.3982C5.43309 17.1952 5.38167 16.9753 5.23314 16.8231C4.39332 15.814 3.71918 13.9648 3.71918 12.2396C3.71918 7.80832 7.11844 3.51797 12.9114 3.51797C17.9161 3.51797 21.4181 6.87808 21.4181 11.6927C21.4181 17.1276 18.6359 20.8936 15.0138 20.8936C13.0143 20.8936 11.5175 19.2643 11.9974 17.2629C12.5744 14.8724 13.6827 12.296 13.6827 10.5708C13.6827 9.02608 12.8429 7.74066 11.1061 7.74066C9.06087 7.74066 7.42123 9.82664 7.42123 12.6173C7.42123 14.3989 8.03252 15.5997 8.03252 15.5997C8.03252 15.5997 6.01582 24.0169 5.64447 25.5842C5.22171 27.3883 5.41595 29.976 5.59877 31.5546C6.01582 31.7125 6.42716 31.8703 6.85564 32C7.68403 30.6864 9.02088 28.3749 9.49506 26.5595C9.74643 25.6293 10.7691 21.79 10.7691 21.79Z"/>
	</symbol>

	<symbol viewBox="0 0 8 31" id="arrow-up">
		<path fill-rule="evenodd" clip-rule="evenodd" d="M3.32843 0.146447C3.52369 -0.0488155 3.84027 -0.0488155 4.03553 0.146447L7.21751 3.32843C7.41278 3.52369 7.41278 3.84027 7.21751 4.03553C7.02225 4.2308 6.70567 4.2308 6.51041 4.03553L4.18198 1.70711L4.18198 30.5H3.18198L3.18198 1.70711L0.853553 4.03553C0.658291 4.2308 0.341709 4.2308 0.146447 4.03553C-0.0488155 3.84027 -0.0488155 3.52369 0.146447 3.32843L3.32843 0.146447Z"/>
	</symbol>

	<symbol viewBox="0 0 15 8" id="select-arrow">
		<path fill-rule="evenodd" clip-rule="evenodd" d="M7.16113 7.36737L0.661133 1.36737L1.33941 0.632568L7.50027 6.31952L13.6611 0.632568L14.3394 1.36737L7.83941 7.36737C7.64788 7.54417 7.35266 7.54417 7.16113 7.36737Z"/>
	</symbol>
	
</svg>