<svg width="688" height="25" viewBox="0 0 688 25" fill="none" xmlns="http://www.w3.org/2000/svg">
<path d="M16.104 19.952C15.024 19.952 14.088 19.256 13.776 18.248L8.352 1.88H7.728L2.304 18.392C1.992 19.328 1.128 19.952 0.144003 19.952H0.120003V19.976H3.912V19.952H3.648C2.904 19.952 2.4 19.232 2.616 18.536L4.032 14.12H10.584L12 18.56C12.24 19.232 11.712 19.952 10.992 19.952H10.656V20H16.272V19.952H16.104ZM4.128 13.808L7.296 4.4L10.488 13.808H4.128Z" fill="white"/>
<path d="M21.4468 19.952L20.4148 19.76C20.1508 19.712 19.9588 19.616 19.9348 19.256V0.584H16.7428V0.655999L17.7748 0.823999C18.0628 0.871999 18.2548 0.967999 18.2548 1.4V19.184C18.2548 19.616 18.0628 19.712 17.7748 19.76L16.7428 19.952V20H21.4468V19.952Z" fill="white"/>
<path d="M29.8877 20.36C31.8077 20.36 34.0397 19.472 34.9517 17.72L34.6877 17.552C33.8237 19.208 31.7117 20.072 29.8877 20.096C25.9277 20.096 24.3197 16.4 24.3197 12.992L24.3437 12.488H34.9517V12.368C35.0957 8.528 32.8637 5.888 29.0237 5.888C24.9677 5.888 22.5197 9.176 22.5197 12.992C22.5197 17.36 25.5197 20.36 29.8877 20.36ZM29.0477 6.176C31.8317 6.176 33.2237 9.44 33.1517 11.984L33.1277 12.224H24.3437C24.5357 9.584 25.9517 6.176 29.0477 6.176Z" fill="white"/>
<path d="M44.6301 19.856L43.6941 19.928V20H49.1181V19.928L48.2541 19.856C47.7021 19.808 47.2221 19.496 46.9341 19.016L42.9501 12.296L46.0701 7.592C46.5261 6.896 47.2941 6.416 48.1581 6.344L48.5421 6.296V6.248H44.7021V6.296L45.3981 6.368C45.8541 6.416 46.1181 6.944 45.8541 7.352L42.7821 12.008L39.9261 7.16C39.7341 6.824 39.9261 6.44 40.3101 6.392L41.2221 6.296V6.248H35.8221V6.296L36.6621 6.392C37.2141 6.44 37.7181 6.752 38.0061 7.256L41.5581 13.256L38.0061 18.632C37.5501 19.352 36.7821 19.808 35.9181 19.904L35.5341 19.928V20H39.3741V19.928L38.6781 19.88C38.2221 19.832 37.9581 19.304 38.2221 18.896L41.7501 13.568L45.0141 19.088C45.2061 19.4 44.9901 19.808 44.6301 19.856Z" fill="white"/>
<path d="M75.7232 2.048H76.0112C76.7312 2.048 77.2592 2.744 77.0432 3.44L72.3632 17.432L67.6592 3.44C67.4912 2.936 67.7312 2.432 68.1392 2.192C68.2832 2.096 68.4752 2.048 68.6672 2.048H69.0032V2H63.4112V2.048H63.5792C64.6352 2.048 65.5712 2.72 65.9072 3.728L67.2032 7.76L63.9392 17.432L59.2352 3.44C59.0192 2.744 59.5232 2.048 60.2672 2.048H60.5792V2H54.9872V2.048H55.1552C56.2112 2.048 57.1712 2.72 57.4832 3.728L62.9552 20.216H63.4112L67.3952 8.384L71.3792 20.216H71.8352L77.3552 3.584C77.6672 2.672 78.5072 2.048 79.4912 2.048H79.5152V2H75.7232V2.048Z" fill="white"/>
<path d="M85.9268 20.36C87.8468 20.36 90.0788 19.472 90.9908 17.72L90.7268 17.552C89.8628 19.208 87.7508 20.072 85.9268 20.096C81.9668 20.096 80.3587 16.4 80.3587 12.992L80.3828 12.488H90.9908V12.368C91.1348 8.528 88.9028 5.888 85.0628 5.888C81.0068 5.888 78.5587 9.176 78.5587 12.992C78.5587 17.36 81.5588 20.36 85.9268 20.36ZM85.0868 6.176C87.8708 6.176 89.2628 9.44 89.1908 11.984L89.1667 12.224H80.3828C80.5748 9.584 81.9908 6.176 85.0868 6.176Z" fill="white"/>
<path d="M96.7515 19.952L95.7195 19.76C95.4555 19.712 95.2635 19.616 95.2395 19.256V0.584H92.0475V0.655999L93.0795 0.823999C93.3675 0.871999 93.5595 0.967999 93.5595 1.4V19.184C93.5595 19.616 93.3675 19.712 93.0795 19.76L92.0475 19.952V20H96.7515V19.952Z" fill="white"/>
<path d="M102.048 19.952L101.016 19.76C100.752 19.712 100.56 19.616 100.536 19.256V0.584H97.3444V0.655999L98.3764 0.823999C98.6644 0.871999 98.8564 0.967999 98.8564 1.4V19.184C98.8564 19.616 98.6644 19.712 98.3764 19.76L97.3444 19.952V20H102.048V19.952Z" fill="white"/>
<path d="M102.881 8.672C102.881 12.152 107.345 14.12 107.345 17.36C107.345 19.784 105.329 20.216 104.417 20.216C104.009 20.216 103.697 20.12 103.553 20.048L103.529 20.168C103.577 20.192 104.009 20.36 104.897 20.36C105.737 20.36 109.049 20.024 109.049 16.904C109.049 13.688 104.513 11.24 104.513 8.288C104.513 7.184 105.089 5.984 106.673 5.984C107.105 5.984 107.321 6.08 107.321 6.08L107.345 5.96C107.345 5.96 107.057 5.888 106.673 5.888C103.841 5.888 102.881 7.304 102.881 8.672Z" fill="white"/>
<path d="M118.89 24.632H120.738V0.584H118.89V24.632Z" fill="white"/>
<path d="M140.52 20.24C142.896 20.24 144.408 19.448 145.056 18.944C145.344 18.728 145.464 18.368 145.32 18.032L145.176 17.672C145.176 17.672 144.096 19.928 140.52 19.928C136.176 19.928 133.032 16.496 133.032 10.784C133.032 5.096 135.696 2.12 139.992 2.072C142.608 2.12 144.552 4.616 144.552 6.176H144.648L144.768 2.984C144.744 2.432 142.248 1.76 139.968 1.76C135.624 1.76 131.088 4.928 131.088 10.784C131.088 16.664 135.408 20.24 140.52 20.24Z" fill="white"/>
<path d="M146.809 13.16C146.809 17.312 149.929 20.36 154.105 20.36C158.281 20.36 161.401 17.312 161.401 13.16C161.401 9.032 158.305 5.888 154.105 5.888C149.905 5.888 146.809 9.032 146.809 13.16ZM154.105 6.176C157.897 6.176 159.601 9.848 159.601 13.136C159.601 16.4 157.897 20.096 154.105 20.096C150.313 20.096 148.609 16.4 148.609 13.136C148.609 9.848 150.313 6.176 154.105 6.176Z" fill="white"/>
<path d="M167.275 19.952L166.243 19.76C165.979 19.712 165.787 19.64 165.763 19.256V8.528C165.979 8.144 167.251 6.248 169.843 6.248C172.051 6.248 172.891 7.736 172.891 9.416V19.184C172.891 19.616 172.675 19.712 172.411 19.76L171.355 19.952V20H176.059V19.952L175.027 19.76C174.763 19.712 174.571 19.64 174.547 19.256V9.632C174.547 9.248 174.499 8.84 174.379 8.456C174.715 7.928 175.963 6.248 178.435 6.248C180.643 6.248 181.459 7.736 181.459 9.416V19.184C181.459 19.616 181.267 19.712 180.979 19.76L179.947 19.952V20H184.651V19.952L183.595 19.76C183.331 19.712 183.139 19.64 183.115 19.256L183.139 9.608C183.139 7.904 182.155 5.888 178.459 5.888C176.035 5.888 174.667 7.496 174.259 8.024C173.755 6.872 172.531 5.888 169.891 5.888C167.587 5.888 166.219 7.328 165.763 7.928V6.248H162.571V6.296L163.603 6.488C163.891 6.536 164.083 6.632 164.083 7.064V19.184C164.083 19.616 163.891 19.712 163.603 19.76L162.571 19.952V20H167.275V19.952Z" fill="white"/>
<path d="M190.08 19.952L189.048 19.76C188.784 19.712 188.592 19.64 188.568 19.256V8.528C188.784 8.144 190.056 6.248 192.648 6.248C194.856 6.248 195.696 7.736 195.696 9.416V19.184C195.696 19.616 195.48 19.712 195.216 19.76L194.16 19.952V20H198.864V19.952L197.832 19.76C197.568 19.712 197.376 19.64 197.352 19.256V9.632C197.352 9.248 197.304 8.84 197.184 8.456C197.52 7.928 198.768 6.248 201.24 6.248C203.448 6.248 204.264 7.736 204.264 9.416V19.184C204.264 19.616 204.072 19.712 203.784 19.76L202.752 19.952V20H207.456V19.952L206.4 19.76C206.136 19.712 205.944 19.64 205.92 19.256L205.944 9.608C205.944 7.904 204.96 5.888 201.264 5.888C198.84 5.888 197.472 7.496 197.064 8.024C196.56 6.872 195.336 5.888 192.696 5.888C190.392 5.888 189.024 7.328 188.568 7.928V6.248H185.376V6.296L186.408 6.488C186.696 6.536 186.888 6.632 186.888 7.064V19.184C186.888 19.616 186.696 19.712 186.408 19.76L185.376 19.952V20H190.08V19.952Z" fill="white"/>
<path d="M216.028 20.36C217.948 20.36 220.18 19.472 221.092 17.72L220.828 17.552C219.964 19.208 217.852 20.072 216.028 20.096C212.068 20.096 210.46 16.4 210.46 12.992L210.484 12.488H221.092V12.368C221.236 8.528 219.004 5.888 215.164 5.888C211.108 5.888 208.66 9.176 208.66 12.992C208.66 17.36 211.66 20.36 216.028 20.36ZM215.188 6.176C217.972 6.176 219.364 9.44 219.292 11.984L219.268 12.224H210.484C210.676 9.584 212.092 6.176 215.188 6.176Z" fill="white"/>
<path d="M229.109 6.512C230.069 6.512 230.453 7.112 230.453 7.112C230.549 6.776 230.765 5.888 229.469 5.888C227.453 5.888 225.869 8.144 225.341 10.76V6.248H222.149V6.296L223.181 6.488C223.469 6.536 223.661 6.632 223.661 7.064V19.184C223.661 19.616 223.469 19.712 223.181 19.76L222.149 19.952V20H226.853V19.952L225.821 19.76C225.557 19.712 225.365 19.64 225.341 19.28V13.04C225.341 9.92 226.853 6.512 229.109 6.512Z" fill="white"/>
<path d="M238.739 20.36C242.459 20.36 243.515 17.696 243.515 17.696L243.251 17.528C243.251 17.528 242.243 20.096 238.739 20.096C235.811 20.096 233.171 17.792 233.171 13.064C233.171 8.768 235.811 6.176 238.595 6.176C240.947 6.176 242.051 7.616 242.531 8.36C243.011 8.312 243.155 7.952 242.963 7.736C242.651 7.328 241.547 5.888 238.643 5.888C235.211 5.888 231.371 8.36 231.371 13.016C231.371 17.768 234.779 20.36 238.739 20.36Z" fill="white"/>
<path d="M246.363 3.152C247.083 3.152 247.659 2.576 247.659 1.88C247.659 1.16 247.083 0.584 246.363 0.584C245.667 0.584 245.091 1.16 245.091 1.88C245.091 2.576 245.667 3.152 246.363 3.152ZM248.931 19.952L247.899 19.76C247.635 19.712 247.443 19.616 247.419 19.256V6.248H244.227V6.296L245.259 6.488C245.547 6.536 245.739 6.632 245.739 7.064V19.184C245.739 19.616 245.547 19.712 245.259 19.76L244.227 19.952V20H248.931V19.952Z" fill="white"/>
<path d="M254.729 20.432C256.385 20.432 258.041 19.64 258.785 18.128V20.024H261.977V19.952L260.945 19.76C260.681 19.736 260.489 19.64 260.465 19.28V9.536C260.465 7.808 259.481 5.768 255.809 5.768C252.905 5.768 251.561 7.016 251.201 7.424C251.009 7.64 251.129 8.048 251.609 8.12C252.137 7.352 253.385 6.056 255.761 6.056C257.969 6.056 258.785 7.616 258.785 9.32V10.784C258.785 13.688 249.761 11.96 249.761 16.832C249.761 19.568 252.353 20.432 254.729 20.432ZM258.785 11.792V17.36C258.281 19.208 256.505 20.168 254.729 20.168C252.617 20.168 251.585 18.824 251.585 17.072C251.585 12.704 257.201 13.4 258.785 11.792Z" fill="white"/>
<path d="M267.4 19.952L266.368 19.76C266.104 19.712 265.912 19.616 265.888 19.256V0.584H262.696V0.655999L263.728 0.823999C264.016 0.871999 264.208 0.967999 264.208 1.4V19.184C264.208 19.616 264.016 19.712 263.728 19.76L262.696 19.952V20H267.4V19.952Z" fill="white"/>
<path d="M270.393 17.912H268.641C268.641 19.256 269.937 21.296 268.353 21.296V21.56C270.513 21.56 270.393 19.184 270.393 17.912Z" fill="white"/>
<path d="M279.103 19.76L278.071 19.928V20H286.183C292.663 20 292.975 10.424 287.167 9.392C289.015 8.888 289.831 7.4 289.831 5.648C289.831 3.824 288.535 2 285.607 2H278.071V2.048L279.103 2.24C279.391 2.288 279.583 2.384 279.583 2.816V19.184C279.583 19.616 279.391 19.712 279.103 19.76ZM281.359 2.288H284.911C288.991 2.288 288.991 9.32 284.911 9.32H281.359V2.288ZM281.359 9.608H285.463C290.743 9.608 290.743 19.712 285.463 19.712H281.359V9.608Z" fill="white"/>
<path d="M299.328 6.512C300.288 6.512 300.672 7.112 300.672 7.112C300.768 6.776 300.984 5.888 299.688 5.888C297.672 5.888 296.088 8.144 295.56 10.76V6.248H292.368V6.296L293.4 6.488C293.688 6.536 293.88 6.632 293.88 7.064V19.184C293.88 19.616 293.688 19.712 293.4 19.76L292.368 19.952V20H297.072V19.952L296.04 19.76C295.776 19.712 295.584 19.64 295.56 19.28V13.04C295.56 9.92 297.072 6.512 299.328 6.512Z" fill="white"/>
<path d="M306.198 20.432C307.854 20.432 309.51 19.64 310.254 18.128V20.024H313.446V19.952L312.414 19.76C312.15 19.736 311.958 19.64 311.934 19.28V9.536C311.934 7.808 310.95 5.768 307.278 5.768C304.374 5.768 303.03 7.016 302.67 7.424C302.478 7.64 302.598 8.048 303.078 8.12C303.606 7.352 304.854 6.056 307.23 6.056C309.438 6.056 310.254 7.616 310.254 9.32V10.784C310.254 13.688 301.23 11.96 301.23 16.832C301.23 19.568 303.822 20.432 306.198 20.432ZM310.254 11.792V17.36C309.75 19.208 307.974 20.168 306.198 20.168C304.086 20.168 303.054 18.824 303.054 17.072C303.054 12.704 308.67 13.4 310.254 11.792Z" fill="white"/>
<path d="M326.525 19.28V9.608C326.525 7.904 325.565 5.888 321.869 5.888C319.445 5.888 317.813 7.52 317.357 8.048V6.248H314.165V6.32L315.197 6.488C315.485 6.536 315.677 6.632 315.677 7.064V19.184C315.677 19.64 315.485 19.712 315.197 19.76L314.165 19.952V20.024H318.869V19.952L317.837 19.76C317.573 19.736 317.381 19.64 317.357 19.28V8.624C317.429 8.504 318.989 6.248 321.821 6.248C324.029 6.248 324.869 7.736 324.869 9.416V19.208C324.869 19.64 324.653 19.712 324.389 19.76L323.333 19.952V20.024H328.037V19.952L327.005 19.76C326.741 19.736 326.549 19.64 326.525 19.28Z" fill="white"/>
<path d="M339.878 7.448C338.918 6.488 337.454 5.888 336.086 5.888C331.79 5.888 329.39 9.008 329.39 13.16C329.39 17.312 331.79 20.36 336.086 20.36C337.43 20.36 339.038 19.88 339.95 18.8L341.558 20.336V0.607999H338.366V0.679998L339.398 0.871999C339.686 0.92 339.878 1.016 339.878 1.472V7.448ZM339.878 18.44C338.654 19.904 337.142 20.072 336.062 20.072C332.15 20.072 331.214 16.4 331.214 13.112C331.214 9.848 332.15 6.152 336.062 6.152C337.454 6.152 338.966 6.752 339.878 7.76V18.44Z" fill="white"/>
<path d="M345.855 3.152C346.575 3.152 347.151 2.576 347.151 1.88C347.151 1.16 346.575 0.584 345.855 0.584C345.159 0.584 344.583 1.16 344.583 1.88C344.583 2.576 345.159 3.152 345.855 3.152ZM348.423 19.952L347.391 19.76C347.127 19.712 346.935 19.616 346.911 19.256V6.248H343.719V6.296L344.751 6.488C345.039 6.536 345.231 6.632 345.231 7.064V19.184C345.231 19.616 345.039 19.712 344.751 19.76L343.719 19.952V20H348.423V19.952Z" fill="white"/>
<path d="M361.493 19.28V9.608C361.493 7.904 360.533 5.888 356.837 5.888C354.413 5.888 352.781 7.52 352.325 8.048V6.248H349.133V6.32L350.165 6.488C350.453 6.536 350.645 6.632 350.645 7.064V19.184C350.645 19.64 350.453 19.712 350.165 19.76L349.133 19.952V20.024H353.837V19.952L352.805 19.76C352.541 19.736 352.349 19.64 352.325 19.28V8.624C352.397 8.504 353.957 6.248 356.789 6.248C358.997 6.248 359.837 7.736 359.837 9.416V19.208C359.837 19.64 359.621 19.712 359.357 19.76L358.301 19.952V20.024H363.005V19.952L361.973 19.76C361.709 19.736 361.517 19.64 361.493 19.28Z" fill="white"/>
<path d="M366.086 14.36C365.366 15.128 364.886 15.632 364.886 15.632C364.838 15.704 364.478 16.112 364.43 16.616C364.358 17.672 364.862 18.512 366.302 18.608C369.014 18.8 371.342 18.512 373.358 18.656C374.798 18.752 375.998 19.424 375.902 20.672C375.806 22.04 373.43 22.976 369.11 22.976C368.27 22.976 367.334 22.928 366.35 22.856C366.134 22.856 365.75 22.736 365.798 22.208L365.918 21.176L365.846 21.152C365.846 21.152 365.126 23.48 365.102 23.816C365.078 24.056 365.078 24.56 365.654 24.584C366.806 24.656 367.982 24.728 369.086 24.728C372.83 24.728 376.022 23.984 376.262 20.624C376.334 19.592 376.094 17.144 372.878 16.904C371.054 16.76 367.982 17.096 366.038 16.952C365.63 16.928 364.91 16.832 364.934 16.328C364.934 16.208 364.982 15.992 365.294 15.632C365.294 15.632 365.702 15.2 366.326 14.552C367.286 15.272 368.702 15.608 369.902 15.608C372.902 15.608 375.278 13.904 375.278 10.736C375.278 9.08 374.678 7.784 373.454 6.944C373.502 6.896 373.526 6.872 373.574 6.824C374.318 6.032 374.918 5.888 375.662 5.936C376.166 5.984 376.43 6.176 376.43 6.176C376.454 5.84 376.382 5.312 375.734 5.264C374.87 5.192 374.414 5.48 373.718 6.224C373.55 6.392 373.382 6.56 373.214 6.776C372.302 6.2 371.102 5.888 369.902 5.888C366.902 5.888 364.526 7.544 364.526 10.736C364.526 12.296 365.054 13.496 366.086 14.36ZM369.902 6.152C371.126 6.152 372.038 6.608 372.686 7.304C371.006 9.104 368.438 11.84 366.71 13.688C366.182 12.848 365.918 11.792 365.918 10.736C365.918 7.736 367.286 6.152 369.902 6.152ZM373.886 10.736C373.886 13.76 372.518 15.344 369.902 15.344C368.534 15.344 367.55 14.792 366.902 13.928C368.606 12.104 371.294 9.248 372.902 7.544C373.574 8.408 373.886 9.584 373.886 10.736Z" fill="white"/>
<path d="M385.789 5.12C385.789 7.112 387.302 8.84 388.142 9.848C386.534 10.424 384.038 11.792 384.038 14.888C384.038 18.704 387.782 20.504 390.878 20.504C392.39 20.504 394.046 19.952 395.318 18.704C396.014 19.376 396.973 19.712 397.957 19.712C398.941 19.712 399.902 19.4 400.67 18.776L400.573 18.68C400.381 18.824 399.83 19.208 399.086 19.208C398.486 19.208 397.742 18.92 396.998 18.008C396.998 18.008 396.781 17.744 396.397 17.288C397.045 16.16 397.453 14.696 397.453 12.872L396.685 10.544L394.237 9.848L394.214 9.992C395.678 10.616 396.59 12.584 396.59 14.072C396.59 15.152 396.398 16.088 396.062 16.856C394.334 14.744 390.757 10.28 389.677 8.936C388.957 8 387.71 6.632 387.71 4.568C387.71 2.768 388.454 1.376 390.038 1.376C391.814 1.376 392.702 3.056 392.702 5.12C392.702 6.656 391.19 8.768 391.19 8.768L391.31 8.912L394.31 5.432C394.31 3.224 392.39 1.112 390.038 1.112C388.022 1.112 385.789 2.672 385.789 5.12ZM395.054 18.416C393.974 19.568 392.486 20.12 390.998 20.12C388.694 20.12 386.054 18.512 386.054 14.864C386.054 12.224 387.494 10.904 388.502 10.28C390.254 12.416 395.03 18.392 395.054 18.416Z" fill="white"/>
<path d="M422.627 19.952C421.547 19.952 420.611 19.256 420.299 18.248L414.875 1.88H414.251L408.827 18.392C408.515 19.328 407.651 19.952 406.667 19.952H406.643V19.976H410.435V19.952H410.171C409.427 19.952 408.923 19.232 409.139 18.536L410.555 14.12H417.107L418.523 18.56C418.763 19.232 418.235 19.952 417.515 19.952H417.179V20H422.795V19.952H422.627ZM410.651 13.808L413.819 4.4L417.011 13.808H410.651Z" fill="white"/>
<path d="M433.159 7.448C432.199 6.488 430.735 5.888 429.367 5.888C425.071 5.888 422.671 9.008 422.671 13.16C422.671 17.312 425.071 20.36 429.367 20.36C430.711 20.36 432.319 19.88 433.231 18.8L434.839 20.336V0.607999H431.647V0.679998L432.679 0.871999C432.967 0.92 433.159 1.016 433.159 1.472V7.448ZM433.159 18.44C431.935 19.904 430.423 20.072 429.343 20.072C425.431 20.072 424.495 16.4 424.495 13.112C424.495 9.848 425.431 6.152 429.343 6.152C430.735 6.152 432.247 6.752 433.159 7.76V18.44Z" fill="white"/>
<path d="M438.321 7.064C438.825 8.648 442.617 20 442.617 20H444.201L448.305 7.592C448.521 6.92 449.121 6.44 449.817 6.368L450.297 6.32V6.248H446.673V6.32L447.321 6.392C447.849 6.44 448.185 6.944 448.017 7.424L444.105 19.424L440.193 6.992C440.145 6.848 440.193 6.656 440.361 6.584C440.625 6.464 440.937 6.392 441.273 6.368L441.753 6.32V6.248H436.761V6.32L437.793 6.488C438.033 6.536 438.201 6.68 438.321 7.064Z" fill="white"/>
<path d="M457.364 20.36C459.284 20.36 461.516 19.472 462.428 17.72L462.164 17.552C461.3 19.208 459.188 20.072 457.364 20.096C453.404 20.096 451.796 16.4 451.796 12.992L451.82 12.488H462.428V12.368C462.572 8.528 460.34 5.888 456.5 5.888C452.444 5.888 449.996 9.176 449.996 12.992C449.996 17.36 452.996 20.36 457.364 20.36ZM456.524 6.176C459.308 6.176 460.7 9.44 460.628 11.984L460.604 12.224H451.82C452.012 9.584 453.428 6.176 456.524 6.176Z" fill="white"/>
<path d="M470.445 6.512C471.405 6.512 471.789 7.112 471.789 7.112C471.885 6.776 472.101 5.888 470.805 5.888C468.789 5.888 467.205 8.144 466.677 10.76V6.248H463.485V6.296L464.517 6.488C464.805 6.536 464.997 6.632 464.997 7.064V19.184C464.997 19.616 464.805 19.712 464.517 19.76L463.485 19.952V20H468.189V19.952L467.157 19.76C466.893 19.712 466.701 19.64 466.677 19.28V13.04C466.677 9.92 468.189 6.512 470.445 6.512Z" fill="white"/>
<path d="M475.726 4.016C475.726 4.496 474.646 6.224 472.774 6.224H472.342V6.488H474.094V16.328C474.094 17.96 474.094 20.36 477.262 20.36C478.942 20.36 479.518 19.304 479.734 18.296L479.614 18.272C479.398 19.136 478.798 20 477.454 20C475.582 20 475.774 18.128 475.774 16.544V6.488H478.87V6.224H475.774V4.016H475.726Z" fill="white"/>
<path d="M482.684 3.152C483.404 3.152 483.979 2.576 483.979 1.88C483.979 1.16 483.404 0.584 482.684 0.584C481.988 0.584 481.412 1.16 481.412 1.88C481.412 2.576 481.988 3.152 482.684 3.152ZM485.252 19.952L484.22 19.76C483.956 19.712 483.764 19.616 483.74 19.256V6.248H480.547V6.296L481.58 6.488C481.868 6.536 482.06 6.632 482.06 7.064V19.184C482.06 19.616 481.868 19.712 481.58 19.76L480.547 19.952V20H485.252V19.952Z" fill="white"/>
<path d="M486.202 8.672C486.202 12.152 490.666 14.12 490.666 17.36C490.666 19.784 488.65 20.216 487.738 20.216C487.33 20.216 487.018 20.12 486.874 20.048L486.85 20.168C486.898 20.192 487.33 20.36 488.218 20.36C489.058 20.36 492.37 20.024 492.37 16.904C492.37 13.688 487.834 11.24 487.834 8.288C487.834 7.184 488.41 5.984 489.994 5.984C490.426 5.984 490.642 6.08 490.642 6.08L490.666 5.96C490.666 5.96 490.378 5.888 489.994 5.888C487.162 5.888 486.202 7.304 486.202 8.672Z" fill="white"/>
<path d="M495.457 3.152C496.177 3.152 496.753 2.576 496.753 1.88C496.753 1.16 496.177 0.584 495.457 0.584C494.761 0.584 494.185 1.16 494.185 1.88C494.185 2.576 494.761 3.152 495.457 3.152ZM498.025 19.952L496.993 19.76C496.729 19.712 496.537 19.616 496.513 19.256V6.248H493.321V6.296L494.353 6.488C494.641 6.536 494.833 6.632 494.833 7.064V19.184C494.833 19.616 494.641 19.712 494.353 19.76L493.321 19.952V20H498.025V19.952Z" fill="white"/>
<path d="M511.095 19.28V9.608C511.095 7.904 510.135 5.888 506.439 5.888C504.015 5.888 502.383 7.52 501.927 8.048V6.248H498.735V6.32L499.767 6.488C500.055 6.536 500.247 6.632 500.247 7.064V19.184C500.247 19.64 500.055 19.712 499.767 19.76L498.735 19.952V20.024H503.439V19.952L502.407 19.76C502.143 19.736 501.951 19.64 501.927 19.28V8.624C501.999 8.504 503.559 6.248 506.391 6.248C508.599 6.248 509.439 7.736 509.439 9.416V19.208C509.439 19.64 509.223 19.712 508.959 19.76L507.903 19.952V20.024H512.607V19.952L511.575 19.76C511.311 19.736 511.119 19.64 511.095 19.28Z" fill="white"/>
<path d="M515.688 14.36C514.968 15.128 514.488 15.632 514.488 15.632C514.44 15.704 514.08 16.112 514.032 16.616C513.96 17.672 514.464 18.512 515.904 18.608C518.616 18.8 520.944 18.512 522.96 18.656C524.4 18.752 525.6 19.424 525.504 20.672C525.408 22.04 523.032 22.976 518.712 22.976C517.872 22.976 516.936 22.928 515.952 22.856C515.736 22.856 515.352 22.736 515.4 22.208L515.52 21.176L515.448 21.152C515.448 21.152 514.728 23.48 514.704 23.816C514.68 24.056 514.68 24.56 515.256 24.584C516.408 24.656 517.584 24.728 518.688 24.728C522.432 24.728 525.624 23.984 525.864 20.624C525.936 19.592 525.696 17.144 522.48 16.904C520.656 16.76 517.584 17.096 515.64 16.952C515.232 16.928 514.512 16.832 514.536 16.328C514.536 16.208 514.584 15.992 514.896 15.632C514.896 15.632 515.304 15.2 515.928 14.552C516.888 15.272 518.304 15.608 519.504 15.608C522.504 15.608 524.88 13.904 524.88 10.736C524.88 9.08 524.28 7.784 523.056 6.944C523.104 6.896 523.128 6.872 523.176 6.824C523.92 6.032 524.52 5.888 525.264 5.936C525.768 5.984 526.032 6.176 526.032 6.176C526.056 5.84 525.984 5.312 525.336 5.264C524.472 5.192 524.016 5.48 523.32 6.224C523.152 6.392 522.984 6.56 522.816 6.776C521.904 6.2 520.704 5.888 519.504 5.888C516.504 5.888 514.128 7.544 514.128 10.736C514.128 12.296 514.656 13.496 515.688 14.36ZM519.504 6.152C520.728 6.152 521.64 6.608 522.288 7.304C520.608 9.104 518.04 11.84 516.312 13.688C515.784 12.848 515.52 11.792 515.52 10.736C515.52 7.736 516.888 6.152 519.504 6.152ZM523.488 10.736C523.488 13.76 522.12 15.344 519.504 15.344C518.136 15.344 517.152 14.792 516.504 13.928C518.208 12.104 520.896 9.248 522.504 7.544C523.176 8.408 523.488 9.584 523.488 10.736Z" fill="white"/>
<path d="M539.687 12.536C547.439 12.536 547.391 2 539.639 2H533.399V2.048L534.431 2.24C534.695 2.288 534.911 2.384 534.911 2.744V19.256C534.911 19.64 534.695 19.712 534.431 19.76L533.399 19.952V20H538.175V19.952L537.143 19.76C536.879 19.712 536.663 19.616 536.663 19.256V12.536C537.239 12.536 538.607 12.536 539.687 12.536ZM536.663 2.744C536.663 2.456 536.783 2.36 536.951 2.288H538.967C545.159 2.288 545.159 12.248 538.967 12.248H536.663V2.744Z" fill="white"/>
<path d="M551.017 19.952L549.985 19.76C549.721 19.712 549.529 19.64 549.505 19.256V8.744C549.721 8.288 550.873 6.248 553.969 6.248C556.177 6.248 557.017 7.736 557.017 9.416V19.184C557.017 19.616 556.801 19.712 556.513 19.76L555.481 19.952V20H560.185V19.952L559.153 19.76C558.889 19.712 558.697 19.64 558.673 19.256V9.608C558.673 7.904 557.713 5.888 554.017 5.888C551.281 5.888 549.937 7.448 549.505 8.12V0.584H546.313V0.655999L547.345 0.823999C547.633 0.871999 547.825 0.967999 547.825 1.4V19.184C547.825 19.616 547.633 19.712 547.345 19.76L546.313 19.952V20H551.017V19.952Z" fill="white"/>
<path d="M561.301 13.16C561.301 17.312 564.421 20.36 568.597 20.36C572.773 20.36 575.893 17.312 575.893 13.16C575.893 9.032 572.797 5.888 568.597 5.888C564.397 5.888 561.301 9.032 561.301 13.16ZM568.597 6.176C572.389 6.176 574.093 9.848 574.093 13.136C574.093 16.4 572.389 20.096 568.597 20.096C564.805 20.096 563.101 16.4 563.101 13.136C563.101 9.848 564.805 6.176 568.597 6.176Z" fill="white"/>
<path d="M580.327 4.016C580.327 4.496 579.247 6.224 577.375 6.224H576.943V6.488H578.695V16.328C578.695 17.96 578.695 20.36 581.863 20.36C583.543 20.36 584.119 19.304 584.335 18.296L584.215 18.272C583.999 19.136 583.399 20 582.055 20C580.183 20 580.375 18.128 580.375 16.544V6.488H583.471V6.224H580.375V4.016H580.327Z" fill="white"/>
<path d="M585.02 13.16C585.02 17.312 588.14 20.36 592.316 20.36C596.492 20.36 599.612 17.312 599.612 13.16C599.612 9.032 596.516 5.888 592.316 5.888C588.116 5.888 585.02 9.032 585.02 13.16ZM592.316 6.176C596.108 6.176 597.812 9.848 597.812 13.136C597.812 16.4 596.108 20.096 592.316 20.096C588.524 20.096 586.82 16.4 586.82 13.136C586.82 9.848 588.524 6.176 592.316 6.176Z" fill="white"/>
<path d="M603.11 14.36C602.39 15.128 601.91 15.632 601.91 15.632C601.862 15.704 601.502 16.112 601.454 16.616C601.382 17.672 601.886 18.512 603.326 18.608C606.038 18.8 608.366 18.512 610.382 18.656C611.822 18.752 613.022 19.424 612.926 20.672C612.83 22.04 610.454 22.976 606.134 22.976C605.294 22.976 604.358 22.928 603.374 22.856C603.158 22.856 602.774 22.736 602.822 22.208L602.942 21.176L602.87 21.152C602.87 21.152 602.15 23.48 602.126 23.816C602.102 24.056 602.102 24.56 602.678 24.584C603.83 24.656 605.006 24.728 606.11 24.728C609.854 24.728 613.046 23.984 613.286 20.624C613.358 19.592 613.118 17.144 609.902 16.904C608.078 16.76 605.006 17.096 603.062 16.952C602.654 16.928 601.934 16.832 601.958 16.328C601.958 16.208 602.006 15.992 602.318 15.632C602.318 15.632 602.726 15.2 603.35 14.552C604.31 15.272 605.726 15.608 606.926 15.608C609.926 15.608 612.302 13.904 612.302 10.736C612.302 9.08 611.702 7.784 610.478 6.944C610.526 6.896 610.55 6.872 610.598 6.824C611.342 6.032 611.942 5.888 612.686 5.936C613.19 5.984 613.454 6.176 613.454 6.176C613.478 5.84 613.406 5.312 612.758 5.264C611.894 5.192 611.438 5.48 610.742 6.224C610.574 6.392 610.406 6.56 610.238 6.776C609.326 6.2 608.126 5.888 606.926 5.888C603.926 5.888 601.55 7.544 601.55 10.736C601.55 12.296 602.078 13.496 603.11 14.36ZM606.926 6.152C608.15 6.152 609.062 6.608 609.71 7.304C608.03 9.104 605.462 11.84 603.734 13.688C603.206 12.848 602.942 11.792 602.942 10.736C602.942 7.736 604.31 6.152 606.926 6.152ZM610.91 10.736C610.91 13.76 609.542 15.344 606.926 15.344C605.558 15.344 604.574 14.792 603.926 13.928C605.63 12.104 608.318 9.248 609.926 7.544C610.598 8.408 610.91 9.584 610.91 10.736Z" fill="white"/>
<path d="M621.406 6.512C622.366 6.512 622.75 7.112 622.75 7.112C622.846 6.776 623.062 5.888 621.766 5.888C619.75 5.888 618.166 8.144 617.638 10.76V6.248H614.446V6.296L615.478 6.488C615.766 6.536 615.958 6.632 615.958 7.064V19.184C615.958 19.616 615.766 19.712 615.478 19.76L614.446 19.952V20H619.15V19.952L618.118 19.76C617.854 19.712 617.662 19.64 617.638 19.28V13.04C617.638 9.92 619.15 6.512 621.406 6.512Z" fill="white"/>
<path d="M628.276 20.432C629.932 20.432 631.588 19.64 632.332 18.128V20.024H635.524V19.952L634.492 19.76C634.228 19.736 634.036 19.64 634.012 19.28V9.536C634.012 7.808 633.028 5.768 629.356 5.768C626.452 5.768 625.108 7.016 624.748 7.424C624.556 7.64 624.676 8.048 625.156 8.12C625.684 7.352 626.932 6.056 629.308 6.056C631.516 6.056 632.332 7.616 632.332 9.32V10.784C632.332 13.688 623.308 11.96 623.308 16.832C623.308 19.568 625.9 20.432 628.276 20.432ZM632.332 11.792V17.36C631.828 19.208 630.052 20.168 628.276 20.168C626.164 20.168 625.132 18.824 625.132 17.072C625.132 12.704 630.748 13.4 632.332 11.792Z" fill="white"/>
<path d="M637.659 23.888C637.659 24.32 637.443 24.416 637.155 24.464L636.123 24.656V24.704H640.827V24.656L639.795 24.464C639.531 24.416 639.339 24.344 639.315 23.96V18.8C640.275 19.76 641.739 20.36 643.107 20.36C647.403 20.36 649.803 17.216 649.803 13.088C649.803 8.936 647.403 5.888 643.131 5.888C641.763 5.888 640.155 6.344 639.267 7.448L637.659 5.912V23.888ZM639.315 18.488V7.808C640.539 6.344 642.051 6.152 643.131 6.152C647.043 6.152 648.003 9.848 648.003 13.112C648.003 16.4 647.043 20.072 643.131 20.072C641.739 20.072 640.227 19.496 639.315 18.488Z" fill="white"/>
<path d="M655.83 19.952L654.798 19.76C654.534 19.712 654.342 19.64 654.318 19.256V8.744C654.534 8.288 655.686 6.248 658.782 6.248C660.99 6.248 661.83 7.736 661.83 9.416V19.184C661.83 19.616 661.614 19.712 661.326 19.76L660.294 19.952V20H664.998V19.952L663.966 19.76C663.702 19.712 663.51 19.64 663.486 19.256V9.608C663.486 7.904 662.526 5.888 658.83 5.888C656.094 5.888 654.75 7.448 654.318 8.12V0.584H651.126V0.655999L652.158 0.823999C652.446 0.871999 652.638 0.967999 652.638 1.4V19.184C652.638 19.616 652.446 19.712 652.158 19.76L651.126 19.952V20H655.83V19.952Z" fill="white"/>
<path d="M673.481 20.36C675.401 20.36 677.633 19.472 678.545 17.72L678.281 17.552C677.417 19.208 675.305 20.072 673.481 20.096C669.521 20.096 667.913 16.4 667.913 12.992L667.937 12.488H678.545V12.368C678.689 8.528 676.457 5.888 672.617 5.888C668.561 5.888 666.113 9.176 666.113 12.992C666.113 17.36 669.113 20.36 673.481 20.36ZM672.641 6.176C675.425 6.176 676.817 9.44 676.745 11.984L676.721 12.224H667.937C668.129 9.584 669.545 6.176 672.641 6.176Z" fill="white"/>
<path d="M686.562 6.512C687.522 6.512 687.906 7.112 687.906 7.112C688.002 6.776 688.218 5.888 686.922 5.888C684.906 5.888 683.322 8.144 682.794 10.76V6.248H679.602V6.296L680.634 6.488C680.922 6.536 681.114 6.632 681.114 7.064V19.184C681.114 19.616 680.922 19.712 680.634 19.76L679.602 19.952V20H684.306V19.952L683.274 19.76C683.01 19.712 682.818 19.64 682.794 19.28V13.04C682.794 9.92 684.306 6.512 686.562 6.512Z" fill="white"/>
</svg>
